<svg width="25" height="24" viewBox="0 0 25 24" fill="none" xmlns="http://www.w3.org/2000/svg">
<path d="M13.875 8V4C13.875 3.71667 13.971 3.47933 14.163 3.288C14.355 3.09667 14.5923 3.00067 14.875 3H20.875C21.1583 3 21.396 3.096 21.588 3.288C21.78 3.48 21.8757 3.71733 21.875 4V8C21.875 8.28333 21.779 8.521 21.587 8.713C21.395 8.905 21.1577 9.00067 20.875 9H14.875C14.5917 9 14.3543 8.904 14.163 8.712C13.9717 8.52 13.8757 8.28267 13.875 8ZM3.875 12V4C3.875 3.71667 3.971 3.47933 4.163 3.288C4.355 3.09667 4.59233 3.00067 4.875 3H10.875C11.1583 3 11.396 3.096 11.588 3.288C11.78 3.48 11.8757 3.71733 11.875 4V12C11.875 12.2833 11.779 12.521 11.587 12.713C11.395 12.905 11.1577 13.0007 10.875 13H4.875C4.59167 13 4.35433 12.904 4.163 12.712C3.97167 12.52 3.87567 12.2827 3.875 12ZM13.875 20V12C13.875 11.7167 13.971 11.4793 14.163 11.288C14.355 11.0967 14.5923 11.0007 14.875 11H20.875C21.1583 11 21.396 11.096 21.588 11.288C21.78 11.48 21.8757 11.7173 21.875 12V20C21.875 20.2833 21.779 20.521 21.587 20.713C21.395 20.905 21.1577 21.0007 20.875 21H14.875C14.5917 21 14.3543 20.904 14.163 20.712C13.9717 20.52 13.8757 20.2827 13.875 20ZM3.875 20V16C3.875 15.7167 3.971 15.4793 4.163 15.288C4.355 15.0967 4.59233 15.0007 4.875 15H10.875C11.1583 15 11.396 15.096 11.588 15.288C11.78 15.48 11.8757 15.7173 11.875 16V20C11.875 20.2833 11.779 20.521 11.587 20.713C11.395 20.905 11.1577 21.0007 10.875 21H4.875C4.59167 21 4.35433 20.904 4.163 20.712C3.97167 20.52 3.87567 20.2827 3.875 20ZM5.875 11H9.875V5H5.875V11ZM15.875 19H19.875V13H15.875V19ZM15.875 7H19.875V5H15.875V7ZM5.875 19H9.875V17H5.875V19Z" fill="#1D5BBF"/>
</svg>
