<svg width="25" height="24" viewBox="0 0 25 24" fill="none" xmlns="http://www.w3.org/2000/svg">
<path d="M15.51 18C14.9253 18 14.4267 17.7934 14.014 17.38C13.6013 16.9667 13.3947 16.4684 13.394 15.885C13.3933 15.3017 13.6 14.8027 14.014 14.388C14.428 13.9734 14.9267 13.767 15.51 13.769C16.0933 13.771 16.592 13.9777 17.006 14.389C17.42 14.8004 17.6263 15.299 17.625 15.885C17.6237 16.471 17.417 16.9697 17.005 17.381C16.593 17.7924 16.0947 17.9987 15.51 18ZM6.24 21C5.78 21 5.396 20.846 5.088 20.538C4.78 20.23 4.62567 19.8457 4.625 19.385V6.61502C4.625 6.15502 4.77933 5.77102 5.088 5.46302C5.39667 5.15502 5.781 5.00069 6.241 5.00002H8.01V2.77002H9.087V5.00002H16.241V2.77002H17.241V5.00002H19.01C19.47 5.00002 19.8543 5.15435 20.163 5.46302C20.4717 5.77169 20.6257 6.15602 20.625 6.61602V19.385C20.625 19.845 20.471 20.2294 20.163 20.538C19.855 20.8467 19.4703 21.0007 19.009 21H6.24ZM6.24 20H19.01C19.1633 20 19.3043 19.936 19.433 19.808C19.5617 19.68 19.6257 19.5387 19.625 19.384V10.616H5.625V19.385C5.625 19.5384 5.689 19.6794 5.817 19.808C5.945 19.9367 6.086 20.0007 6.24 20Z" fill="#18283D"/>
</svg>
