<svg width="25" height="24" viewBox="0 0 25 24" fill="none" xmlns="http://www.w3.org/2000/svg">
<path d="M15.875 13C15.875 12.8011 15.796 12.6103 15.6553 12.4697C15.5147 12.329 15.3239 12.25 15.125 12.25H9.125C8.92609 12.25 8.73532 12.329 8.59467 12.4697C8.45402 12.6103 8.375 12.8011 8.375 13C8.375 13.1989 8.45402 13.3897 8.59467 13.5303C8.73532 13.671 8.92609 13.75 9.125 13.75H15.125C15.3239 13.75 15.5147 13.671 15.6553 13.5303C15.796 13.3897 15.875 13.1989 15.875 13ZM15.875 17C15.875 16.8011 15.796 16.6103 15.6553 16.4697C15.5147 16.329 15.3239 16.25 15.125 16.25H9.125C8.92609 16.25 8.73532 16.329 8.59467 16.4697C8.45402 16.6103 8.375 16.8011 8.375 17C8.375 17.1989 8.45402 17.3897 8.59467 17.5303C8.73532 17.671 8.92609 17.75 9.125 17.75H15.125C15.3239 17.75 15.5147 17.671 15.6553 17.5303C15.796 17.3897 15.875 17.1989 15.875 17Z" fill="#18283D"/>
<path fill-rule="evenodd" clip-rule="evenodd" d="M7.125 2.25C6.39565 2.25 5.69618 2.53973 5.18046 3.05546C4.66473 3.57118 4.375 4.27065 4.375 5V19C4.375 19.7293 4.66473 20.4288 5.18046 20.9445C5.69618 21.4603 6.39565 21.75 7.125 21.75H17.125C17.8543 21.75 18.5538 21.4603 19.0695 20.9445C19.5853 20.4288 19.875 19.7293 19.875 19V7.968C19.875 7.587 19.751 7.217 19.521 6.913L16.523 2.945C16.3599 2.72912 16.1489 2.554 15.9067 2.43341C15.6645 2.31282 15.3976 2.25004 15.127 2.25H7.125ZM5.875 5C5.875 4.31 6.435 3.75 7.125 3.75H14.375V8.147C14.375 8.561 14.711 8.897 15.125 8.897H18.375V19C18.375 19.69 17.815 20.25 17.125 20.25H7.125C6.435 20.25 5.875 19.69 5.875 19V5Z" fill="#18283D"/>
</svg>
