<svg width="25" height="24" viewBox="0 0 25 24" fill="none" xmlns="http://www.w3.org/2000/svg">
<path d="M12.375 4C11.4467 4 10.5565 4.36875 9.90013 5.02513C9.24375 5.6815 8.875 6.57174 8.875 7.5C8.875 8.42826 9.24375 9.3185 9.90013 9.97487C10.5565 10.6313 11.4467 11 12.375 11C13.3033 11 14.1935 10.6313 14.8499 9.97487C15.5063 9.3185 15.875 8.42826 15.875 7.5C15.875 6.57174 15.5063 5.6815 14.8499 5.02513C14.1935 4.36875 13.3033 4 12.375 4ZM6.875 7.5C6.875 6.04131 7.45446 4.64236 8.48591 3.61091C9.51736 2.57946 10.9163 2 12.375 2C13.8337 2 15.2326 2.57946 16.2641 3.61091C17.2955 4.64236 17.875 6.04131 17.875 7.5C17.875 8.95869 17.2955 10.3576 16.2641 11.3891C15.2326 12.4205 13.8337 13 12.375 13C10.9163 13 9.51736 12.4205 8.48591 11.3891C7.45446 10.3576 6.875 8.95869 6.875 7.5ZM3.375 19C3.375 17.6739 3.90178 16.4021 4.83947 15.4645C5.77715 14.5268 7.04892 14 8.375 14H16.375C17.7011 14 18.9729 14.5268 19.9105 15.4645C20.8482 16.4021 21.375 17.6739 21.375 19V22H3.375V19ZM8.375 16C7.57935 16 6.81629 16.3161 6.25368 16.8787C5.69107 17.4413 5.375 18.2044 5.375 19V20H19.375V19C19.375 18.2044 19.0589 17.4413 18.4963 16.8787C17.9337 16.3161 17.1706 16 16.375 16H8.375Z" fill="#18283D"/>
</svg>
