<svg width="28" height="23" viewBox="0 0 28 23" fill="none" xmlns="http://www.w3.org/2000/svg">
<path fill-rule="evenodd" clip-rule="evenodd" d="M4.93266 10.4523C5.42154 10.4523 5.8194 10.8505 5.8194 11.3393C5.8194 11.8281 5.42154 12.226 4.93266 12.226C4.44384 12.226 4.04634 11.8282 4.04634 11.3393C4.04634 10.8504 4.44384 10.4523 4.93266 10.4523ZM10.649 4.8092C11.1378 4.8092 11.5354 5.20706 11.5354 5.69588C11.5354 6.18476 11.1379 6.58298 10.649 6.58298C10.1598 6.58298 9.7623 6.18476 9.7623 5.69588C9.7623 5.20706 10.1598 4.8092 10.649 4.8092ZM16.3721 10.4523C16.8609 10.4523 17.2588 10.8505 17.2588 11.3393C17.2588 11.8281 16.8609 12.226 16.3721 12.226C15.8832 12.226 15.4853 11.8282 15.4853 11.3393C15.4853 10.8504 15.8832 10.4523 16.3721 10.4523ZM22.0877 4.8092C22.5765 4.8092 22.9744 5.20706 22.9744 5.69588C22.9744 6.18476 22.5765 6.58298 22.0877 6.58298C21.5989 6.58298 21.2009 6.18476 21.2009 5.69588C21.201 5.20706 21.5989 4.8092 22.0877 4.8092ZM4.93266 13.0455C6.2619 13.0455 7.06998 11.5903 6.39882 10.4674L9.7584 7.15034C10.3047 7.48646 10.9938 7.48676 11.54 7.14998L14.9052 10.4685C14.2355 11.594 15.0454 13.0455 16.3721 13.0455C17.6972 13.0455 18.5108 11.5959 17.8379 10.4674L21.1971 7.15034C22.3256 7.8437 23.7935 7.0307 23.7935 5.69582C23.7935 4.75532 23.0282 3.99002 22.0877 3.99002C20.7628 3.99002 19.9488 5.43914 20.6219 6.56768L17.2623 9.88478C16.7161 9.54824 16.0265 9.54878 15.4804 9.88514L12.1152 6.5666C12.7862 5.44142 11.9756 3.99002 10.649 3.99002C9.32472 3.99002 8.5104 5.43746 9.18288 6.56768L5.8233 9.88478C4.69746 9.19208 3.22692 10.0024 3.22692 11.3392C3.22686 12.2798 3.99216 13.0455 4.93266 13.0455ZM20.7546 21.3384V9.99488H23.443V21.3384H20.7546ZM15.0355 21.3384V15.2185H17.7235V21.3384L15.0355 21.3384ZM9.31596 21.3384V10.9864H12.0047V21.3384H9.31596ZM3.59712 21.3384V16.4386H6.28518V21.3384H3.59712ZM7.10466 19.6616H8.49648V21.3384H7.10466V19.6616ZM12.8242 19.6616H14.216V21.3384H12.8242V19.6616ZM18.543 19.6616H19.9352V21.3384H18.543V19.6616ZM2.15538 18.8422H2.77764V16.0291C2.77764 15.8029 2.96136 15.6192 3.1872 15.6192H6.6951C6.92094 15.6192 7.10466 15.8029 7.10466 16.0291V18.8422H8.49648V10.5768C8.49648 10.3499 8.6802 10.1669 8.9064 10.1669H12.4143C12.6405 10.1669 12.8242 10.3499 12.8242 10.5768V18.8421H14.216V14.8086C14.216 14.5824 14.3994 14.399 14.6256 14.399H18.1331C18.3601 14.399 18.5431 14.5824 18.5431 14.8086V18.8421H19.9352V9.58532C19.9352 9.35912 20.119 9.17576 20.3452 9.17576H23.8527C24.0789 9.17576 24.2626 9.35912 24.2626 9.58532V18.8421H24.8846C25.4686 18.8421 25.944 18.3671 25.944 17.7827V2.37878C25.944 1.79504 25.4686 1.3193 24.8846 1.3193H2.15538C1.57164 1.3193 1.0956 1.79504 1.0956 2.37878V17.7827C1.0956 18.3671 1.57164 18.8422 2.15538 18.8422ZM26.6306 21.3384H24.2625V19.6616H24.8845C25.9202 19.6616 26.7634 18.8188 26.7634 17.7827V2.37878C26.7634 1.3427 25.9202 0.499878 24.8845 0.499878H2.15538C1.11966 0.499878 0.27648 1.3427 0.27648 2.37878V17.7827C0.27648 18.8188 1.11966 19.6616 2.15538 19.6616H2.77764V21.3384H0.40956C0.18336 21.3384 0 21.5217 0 21.7479C0 21.9745 0.18336 22.1578 0.40956 22.1578H26.6306C26.8564 22.1578 27.0401 21.9745 27.0401 21.7479C27.0402 21.5217 26.8564 21.3384 26.6306 21.3384Z" fill="#18283D"/>
</svg>
