<svg width="16" height="21" viewBox="0 0 16 21" fill="none" xmlns="http://www.w3.org/2000/svg">
<path d="M15.6609 18.52L13.4019 12.5808C13.6251 12.4474 13.8191 12.2703 13.9723 12.0602C14.1369 11.834 14.2496 11.5743 14.3023 11.2995C14.355 11.0248 14.3464 10.7418 14.2772 10.4708C14.2187 10.2338 14.2285 9.98507 14.3056 9.75343C14.3826 9.52179 14.5236 9.3167 14.7124 9.16191C14.9309 8.98281 15.1068 8.75739 15.2276 8.50196C15.3483 8.24653 15.4107 7.96747 15.4103 7.68496C15.41 7.40244 15.3469 7.12354 15.2255 6.86841C15.1042 6.61328 14.9276 6.3883 14.7087 6.20975C14.5206 6.05436 14.3804 5.84889 14.3042 5.61712C14.228 5.38536 14.219 5.13676 14.2782 4.90009C14.3469 4.62951 14.3551 4.34714 14.3022 4.07304C14.2494 3.79894 14.1368 3.53985 13.9724 3.3142C13.804 3.0824 13.5864 2.89062 13.3353 2.75249C13.0842 2.61437 12.8058 2.53332 12.5198 2.5151C12.2738 2.49854 12.0372 2.41386 11.8365 2.27053C11.6359 2.1272 11.4791 1.93087 11.3836 1.7035C11.2768 1.44321 11.1144 1.20938 10.9079 1.01831C10.7013 0.827234 10.4556 0.683525 10.1878 0.597207C9.91617 0.508392 9.62844 0.479884 9.34466 0.51367C9.06089 0.547457 8.7879 0.642725 8.54471 0.792833C8.33267 0.922381 8.08901 0.990927 7.84052 0.990927C7.59204 0.990927 7.34837 0.922381 7.13633 0.792833C6.89315 0.642719 6.62016 0.547447 6.33638 0.513661C6.05261 0.479874 5.76488 0.508385 5.49325 0.597207C5.22555 0.683596 4.97991 0.827331 4.77345 1.01839C4.567 1.20945 4.4047 1.44324 4.29787 1.70347C4.20213 1.93126 4.04483 2.12788 3.84361 2.27128C3.64239 2.41468 3.4052 2.4992 3.15864 2.51535C2.87314 2.53385 2.59523 2.61505 2.34468 2.75317C2.09413 2.89128 1.8771 3.08292 1.70903 3.31445C1.54445 3.54065 1.4318 3.80037 1.3791 4.0751C1.3264 4.34982 1.33495 4.63279 1.40415 4.90384C1.46264 5.14084 1.45281 5.38956 1.37579 5.62121C1.29877 5.85286 1.15772 6.05795 0.968962 6.21276C0.75047 6.39185 0.574508 6.61726 0.453801 6.87269C0.333095 7.12812 0.27066 7.40718 0.271013 7.68969C0.271366 7.9722 0.334497 8.2511 0.455842 8.50623C0.577186 8.76136 0.753711 8.98633 0.97265 9.16487C1.1607 9.32026 1.30093 9.52571 1.3771 9.75746C1.45328 9.98921 1.4623 10.2378 1.40312 10.4744C1.33448 10.745 1.32629 11.0274 1.37914 11.3015C1.43199 11.5756 1.54458 11.8347 1.70891 12.0603C1.86215 12.2703 2.05616 12.4473 2.27935 12.5806L0.0204853 18.52C-0.00080165 18.5759 -0.00562066 18.6367 0.00659998 18.6952C0.0188206 18.7537 0.0475679 18.8074 0.08943 18.8501C0.131292 18.8927 0.184511 18.9225 0.242772 18.9358C0.301032 18.9491 0.361887 18.9454 0.418114 18.9251L2.87848 18.0408L4.1288 20.3368C4.15563 20.3861 4.19528 20.4273 4.24356 20.456C4.29184 20.4847 4.34698 20.4999 4.40315 20.4999C4.41018 20.4999 4.41718 20.4996 4.42421 20.4991C4.48384 20.4951 4.54107 20.4741 4.5891 20.4385C4.63713 20.4029 4.67396 20.3543 4.69521 20.2985L6.81008 14.7409C6.92361 14.698 7.03293 14.6446 7.13664 14.5815C7.34865 14.4521 7.59226 14.3836 7.84068 14.3836C8.0891 14.3836 8.3327 14.4521 8.54471 14.5815L8.54503 14.5817C8.64846 14.6439 8.75741 14.6965 8.8705 14.7388L10.9861 20.2982C11.0074 20.354 11.0442 20.4026 11.0923 20.4382C11.1403 20.4738 11.1975 20.4948 11.2571 20.4988C11.2642 20.4993 11.2712 20.4996 11.2782 20.4996C11.3344 20.4996 11.3895 20.4844 11.4378 20.4557C11.4861 20.427 11.5257 20.3858 11.5526 20.3365L12.8029 18.0405L15.2632 18.9249C15.3195 18.9451 15.3803 18.9488 15.4386 18.9355C15.4968 18.9222 15.5501 18.8924 15.5919 18.8498C15.6338 18.8071 15.6625 18.7534 15.6748 18.6949C15.687 18.6364 15.6822 18.5759 15.6609 18.52ZM4.3528 19.4412L3.29933 17.5068C3.26364 17.4414 3.20574 17.3908 3.13608 17.3643C3.06641 17.3378 2.98956 17.337 2.91939 17.3622L0.845992 18.1073L2.85979 12.8128C2.95908 12.8361 3.06 12.8516 3.16167 12.8594C3.4077 12.876 3.64428 12.9607 3.84494 13.104C4.04559 13.2473 4.20242 13.4437 4.29787 13.671C4.40471 13.9313 4.56706 14.1651 4.77357 14.3562C4.98008 14.5473 5.22579 14.691 5.49356 14.7773C5.68668 14.8397 5.88826 14.8719 6.09119 14.8729L4.3528 19.4412ZM6.80795 14.0498C6.64207 14.1523 6.45582 14.2173 6.26221 14.2403C6.0686 14.2633 5.87231 14.2437 5.68703 14.183C5.50562 14.1247 5.33911 14.0275 5.19911 13.8982C5.05912 13.7689 4.94901 13.6106 4.87646 13.4344C4.73608 13.0987 4.50498 12.8088 4.20905 12.597C3.91313 12.3853 3.56408 12.2602 3.20104 12.2357C3.00693 12.2232 2.81795 12.1682 2.64752 12.0744C2.4771 11.9807 2.32943 11.8505 2.215 11.6932C2.10432 11.5411 2.02858 11.3665 1.99319 11.1817C1.95779 10.997 1.96362 10.8067 2.01025 10.6244C2.09738 10.2727 2.0832 9.90341 1.96937 9.55934C1.85553 9.21527 1.64668 8.91043 1.36693 8.68003C1.21946 8.55956 1.10067 8.40775 1.01921 8.23562C0.937754 8.0635 0.895671 7.87539 0.896021 7.68496C0.896372 7.49453 0.939146 7.30658 1.02124 7.13476C1.10333 6.96293 1.22267 6.81156 1.37059 6.69163C1.64966 6.46067 1.85771 6.15549 1.97074 5.81133C2.08377 5.46717 2.09717 5.09806 2.00938 4.74662C1.96328 4.56484 1.95782 4.37513 1.99337 4.19099C2.02892 4.00686 2.10462 3.83282 2.21507 3.68126C2.32994 3.52362 2.47816 3.39326 2.64918 3.29947C2.8202 3.20567 3.00981 3.15076 3.20448 3.13863C3.56695 3.11367 3.91532 2.98834 4.21062 2.77666C4.50591 2.56498 4.73648 2.27531 4.87653 1.94006C4.94901 1.76383 5.0591 1.60554 5.19911 1.47627C5.33911 1.34699 5.50565 1.24985 5.6871 1.19162C5.87243 1.13095 6.06876 1.11144 6.26241 1.13445C6.45606 1.15745 6.64236 1.22241 6.80833 1.32481C7.11927 1.51469 7.47656 1.61515 7.8409 1.61515C8.20524 1.61515 8.56252 1.51469 8.87347 1.32481C9.03938 1.22244 9.22563 1.15749 9.41922 1.13449C9.61282 1.11149 9.8091 1.13098 9.99438 1.19162C10.1758 1.24995 10.3423 1.34715 10.4823 1.47644C10.6223 1.60573 10.7324 1.764 10.805 1.94022C10.9453 2.27591 11.1764 2.56588 11.4724 2.7776C11.7683 2.98933 12.1173 3.11445 12.4804 3.13895C12.6745 3.1514 12.8635 3.20647 13.0339 3.30023C13.2043 3.39398 13.352 3.52413 13.4664 3.68142C13.5771 3.83351 13.6528 4.00817 13.6882 4.19292C13.7236 4.37766 13.7178 4.56795 13.6712 4.75018C13.584 5.10196 13.5982 5.47122 13.7121 5.81529C13.8259 6.15936 14.0347 6.4642 14.3145 6.6946C14.462 6.81507 14.5807 6.96688 14.6622 7.13901C14.7437 7.31113 14.7857 7.49924 14.7854 7.68967C14.785 7.88009 14.7423 8.06805 14.6602 8.23987C14.5781 8.4117 14.4587 8.56307 14.3108 8.68299C14.0318 8.91394 13.8237 9.2191 13.7107 9.56324C13.5976 9.90738 13.5842 10.2765 13.672 10.6279C13.7181 10.8097 13.7235 10.9994 13.688 11.1835C13.6524 11.3677 13.5767 11.5417 13.4663 11.6933C13.3514 11.8509 13.2032 11.9813 13.0322 12.0751C12.8612 12.1689 12.6716 12.2238 12.4769 12.2359C12.1144 12.2609 11.766 12.3862 11.4707 12.5979C11.1754 12.8096 10.9449 13.0992 10.8048 13.4345C10.7323 13.6107 10.6223 13.769 10.4823 13.8983C10.3422 14.0275 10.1757 14.1247 9.99426 14.1829C9.80895 14.2438 9.61259 14.2634 9.41891 14.2404C9.22523 14.2174 9.03892 14.1523 8.87303 14.0497C8.56208 13.8599 8.2048 13.7594 7.84048 13.7594C7.47615 13.7595 7.11888 13.8599 6.80795 14.0498ZM12.762 17.362C12.6918 17.3369 12.6149 17.3376 12.5453 17.3641C12.4756 17.3907 12.4177 17.4412 12.382 17.5067L11.3286 19.4411L9.59041 14.8736C9.79329 14.8724 9.99478 14.84 10.1878 14.7775C10.4556 14.6911 10.7014 14.5474 10.9079 14.3563C11.1145 14.1652 11.2769 13.9313 11.3838 13.671C11.4794 13.4432 11.6366 13.2466 11.8378 13.1032C12.039 12.9598 12.2762 12.8753 12.5227 12.8592C12.6234 12.8515 12.7234 12.836 12.8217 12.813L14.8354 18.1072L12.762 17.362Z" fill="#18283D"/>
<path d="M12.5313 7.68742C12.5313 6.76031 12.2564 5.85402 11.7413 5.08316C11.2263 4.3123 10.4942 3.71149 9.63764 3.3567C8.7811 3.00191 7.83859 2.90908 6.9293 3.08995C6.02 3.27082 5.18477 3.71726 4.5292 4.37283C3.87364 5.02839 3.42719 5.86363 3.24632 6.77293C3.06545 7.68222 3.15828 8.62473 3.51307 9.48126C3.86786 10.3378 4.46867 11.0699 5.23953 11.585C6.0104 12.1 6.91668 12.375 7.84379 12.375C9.08658 12.3736 10.2781 11.8793 11.1569 11.0005C12.0356 10.1217 12.53 8.93021 12.5313 7.68742ZM7.84379 11.75C7.0403 11.75 6.25485 11.5117 5.58677 11.0653C4.91869 10.6189 4.39798 9.98442 4.0905 9.24208C3.78302 8.49975 3.70256 7.68291 3.85932 6.89486C4.01607 6.1068 4.40299 5.38293 4.97115 4.81477C5.5393 4.24662 6.26318 3.8597 7.05123 3.70295C7.83929 3.54619 8.65613 3.62664 9.39846 3.93413C10.1408 4.24161 10.7753 4.76232 11.2217 5.4304C11.6681 6.09848 11.9063 6.88393 11.9063 7.68742C11.9051 8.7645 11.4767 9.79711 10.7151 10.5587C9.95349 11.3203 8.92087 11.7487 7.84379 11.75Z" fill="#18283D"/>
<path d="M10.3245 6.65254L8.80069 6.43113L8.11924 5.0505C8.09049 5.00177 8.04953 4.96138 8.0004 4.93332C7.95127 4.90526 7.89567 4.8905 7.83909 4.8905C7.78251 4.8905 7.72691 4.90526 7.67777 4.93332C7.62864 4.96138 7.58768 5.00177 7.55893 5.0505L6.87748 6.43113L5.35372 6.65254C5.29598 6.66089 5.24174 6.68523 5.19712 6.72282C5.1525 6.7604 5.11929 6.80972 5.10125 6.8652C5.08321 6.92068 5.08106 6.9801 5.09505 7.03673C5.10903 7.09337 5.13859 7.14496 5.18038 7.18567L6.28329 8.26037L6.02298 9.77788C6.01316 9.83531 6.01959 9.89435 6.04155 9.94832C6.06351 10.0023 6.10012 10.049 6.14724 10.0833C6.19437 10.1176 6.25014 10.138 6.30825 10.1422C6.36636 10.1465 6.4245 10.1344 6.47611 10.1073L7.83909 9.39091L9.202 10.1073C9.25361 10.1344 9.31175 10.1465 9.36986 10.1422C9.42797 10.138 9.48374 10.1176 9.53087 10.0833C9.57799 10.049 9.6146 10.0023 9.63656 9.94832C9.65852 9.89435 9.66495 9.83531 9.65513 9.77788L9.39482 8.26037L10.4977 7.18567C10.5395 7.14496 10.5691 7.09337 10.5831 7.03673C10.597 6.9801 10.5949 6.92068 10.5769 6.8652C10.5588 6.80972 10.5256 6.7604 10.481 6.72282C10.4364 6.68523 10.3822 6.66089 10.3245 6.65254ZM8.841 7.92755C8.80476 7.96295 8.77766 8.00662 8.76203 8.05481C8.7464 8.10299 8.7427 8.15425 8.75125 8.20418L8.93222 9.2595L7.98434 8.76128C7.93953 8.73771 7.88965 8.7254 7.83902 8.7254C7.78839 8.7254 7.73852 8.73771 7.69371 8.76128L6.74595 9.25938L6.92692 8.20406C6.93547 8.15412 6.93177 8.10286 6.91614 8.05468C6.90051 8.0065 6.87341 7.96283 6.83717 7.92743L6.07032 7.18005L7.12992 7.02608C7.18008 7.0188 7.22771 6.99943 7.26871 6.96962C7.3097 6.93982 7.34282 6.90048 7.36521 6.85501L7.83909 5.895L8.31303 6.85507C8.33541 6.90055 8.36853 6.93988 8.40953 6.96969C8.45052 6.99949 8.49815 7.01887 8.54831 7.02614L9.60791 7.18011L8.841 7.92755Z" fill="#18283D"/>
</svg>
