<svg width="22" height="21" viewBox="0 0 22 21" fill="none" xmlns="http://www.w3.org/2000/svg">
<path d="M13.4363 7.42188H15.6313C15.9902 7.42188 16.2815 7.7128 16.2815 8.07213V11.6489C16.2815 12.0082 15.9902 12.2996 15.6313 12.2996H10.8349L10.1062 13.0283C10.0522 13.0822 9.97901 13.1124 9.90296 13.1124C9.74402 13.1124 9.61525 12.9836 9.61525 12.8251V12.2996H9.20885C8.84992 12.2996 8.55859 12.0082 8.55859 11.6489V9.86072" stroke="#18283D" stroke-width="0.8" stroke-miterlimit="10" stroke-linecap="round" stroke-linejoin="round"/>
<path d="M12.2174 6.19531H9.04688" stroke="#18283D" stroke-width="0.8" stroke-miterlimit="10" stroke-linecap="round" stroke-linejoin="round"/>
<path d="M10.0267 8.63281H6.9375" stroke="#18283D" stroke-width="0.8" stroke-miterlimit="10" stroke-linecap="round" stroke-linejoin="round"/>
<path d="M7.75044 6.19531H6.9375" stroke="#18283D" stroke-width="0.8" stroke-miterlimit="10" stroke-linecap="round" stroke-linejoin="round"/>
<path d="M6.9375 7.42188H12.2216" stroke="#18283D" stroke-width="0.8" stroke-miterlimit="10" stroke-linecap="round" stroke-linejoin="round"/>
<path d="M8.45146 4.97656H12.7875C13.1465 4.97656 13.4378 5.26749 13.4378 5.62681V9.2036C13.4378 9.56293 13.1465 9.85426 12.7875 9.85426H12.3811V10.3798C12.3811 10.5383 12.2524 10.6671 12.0934 10.6671C12.0174 10.6671 11.9441 10.6369 11.8902 10.583L11.1615 9.85426H6.3651C6.00617 9.85426 5.71484 9.56293 5.71484 9.2036V5.62681C5.71484 5.26749 6.00617 4.97656 6.3651 4.97656H7.04311" stroke="#18283D" stroke-width="0.8" stroke-miterlimit="10" stroke-linecap="round" stroke-linejoin="round"/>
<path d="M8.49989 17.7576C9.32825 17.7576 9.99977 17.0861 9.99977 16.2577C9.99977 15.4293 9.32825 14.7578 8.49989 14.7578C7.67152 14.7578 7 15.4293 7 16.2577C7 17.0861 7.67152 17.7576 8.49989 17.7576Z" stroke="#18283D" stroke-width="0.8" stroke-miterlimit="10" stroke-linecap="round" stroke-linejoin="round"/>
<path d="M6 20.4998V18.9999C6 18.3096 6.5596 17.75 7.24988 17.75H9.74969C10.44 17.75 10.9996 18.3096 10.9996 18.9999V20.4998H6Z" stroke="#18283D" stroke-width="0.8" stroke-miterlimit="10" stroke-linecap="round" stroke-linejoin="round"/>
<path d="M18.4999 17.7576C19.3282 17.7576 19.9998 17.0861 19.9998 16.2577C19.9998 15.4293 19.3282 14.7578 18.4999 14.7578C17.6715 14.7578 17 15.4293 17 16.2577C17 17.0861 17.6715 17.7576 18.4999 17.7576Z" stroke="#18283D" stroke-width="0.8" stroke-miterlimit="10" stroke-linecap="round" stroke-linejoin="round"/>
<path d="M19.6637 20.4999H20.9996V19.0002C20.9996 18.3097 20.4399 17.75 19.7498 17.75H17.2498C16.5597 17.75 16 18.3097 16 19.0002V20.4999H18.2554" stroke="#18283D" stroke-width="0.8" stroke-miterlimit="10" stroke-linecap="round" stroke-linejoin="round"/>
<path d="M13.4999 17.7576C14.3282 17.7576 14.9998 17.0861 14.9998 16.2577C14.9998 15.4293 14.3282 14.7578 13.4999 14.7578C12.6715 14.7578 12 15.4293 12 16.2577C12 17.0861 12.6715 17.7576 13.4999 17.7576Z" stroke="#18283D" stroke-width="0.8" stroke-miterlimit="10" stroke-linecap="round" stroke-linejoin="round"/>
<path d="M11 20.4998V18.9999C11 18.3096 11.5596 17.75 12.2499 17.75H14.7497C15.44 17.75 15.9996 18.3096 15.9996 18.9999V20.4998H11Z" stroke="#18283D" stroke-width="0.8" stroke-miterlimit="10" stroke-linecap="round" stroke-linejoin="round"/>
<path d="M3.49989 17.7576C4.32825 17.7576 4.99977 17.0861 4.99977 16.2577C4.99977 15.4293 4.32825 14.7578 3.49989 14.7578C2.67152 14.7578 2 15.4293 2 16.2577C2 17.0861 2.67152 17.7576 3.49989 17.7576Z" stroke="#18283D" stroke-width="0.8" stroke-miterlimit="10" stroke-linecap="round" stroke-linejoin="round"/>
<path d="M3.95994 20.4999H5.99962V19.0002C5.99962 18.3097 5.4399 17.75 4.74982 17.75H2.2498C1.55972 17.75 1 18.3097 1 19.0002V20.4999H2.55159" stroke="#18283D" stroke-width="0.8" stroke-miterlimit="10" stroke-linecap="round" stroke-linejoin="round"/>
<path d="M19.7014 6.95057C19.8716 7.51228 19.9889 8.09698 20.0474 8.69888L19.6493 8.73762C19.6766 9.01802 19.6906 9.30243 19.6906 9.59022C19.6906 9.87801 19.6766 10.1624 19.6493 10.4428L20.0474 10.4816C19.9889 11.0835 19.8716 11.6682 19.7014 12.2299L19.3186 12.1139C19.1521 12.6633 18.9327 13.1897 18.6662 13.6872L19.0188 13.8761C18.7367 14.4029 18.404 14.8988 18.0275 15.3571L17.7184 15.1031C17.357 15.543 16.9532 15.9468 16.5133 16.3083L16.7672 16.6173C16.3089 16.9939 15.8131 17.3265 15.2862 17.6087L15.0974 17.2561C14.5998 17.5226 14.0734 17.742 13.524 17.9084L13.64 18.2913C13.0783 18.4614 12.4936 18.5787 11.8917 18.6373L11.853 18.2392C11.5726 18.2665 11.2882 18.2804 11.0004 18.2804C10.7126 18.2804 10.4282 18.2665 10.1478 18.2392L10.109 18.6373C9.50714 18.5787 8.92244 18.4614 8.36073 18.2913L8.47671 17.9084C7.92733 17.742 7.40091 17.5226 6.90338 17.2561L6.71451 17.6087C6.18765 17.3265 5.69184 16.9939 5.23351 16.6173L5.48744 16.3083C5.04755 15.9468 4.64376 15.543 4.28233 15.1031L3.97327 15.3571C3.5967 14.8988 3.2641 14.4029 2.9819 13.8761L3.33451 13.6872C3.06802 13.1897 2.8486 12.6633 2.68215 12.1139L2.29934 12.2299C2.12916 11.6682 2.01188 11.0835 1.9533 10.4816L2.35142 10.4428C2.32413 10.1624 2.31016 9.87801 2.31016 9.59022C2.31016 9.30243 2.32413 9.01802 2.35142 8.73762L1.9533 8.69888C2.01188 8.09698 2.12916 7.51228 2.29934 6.95057L2.68215 7.06655C2.8486 6.51718 3.06802 5.99076 3.33451 5.49322L2.9819 5.30436C3.2641 4.77749 3.5967 4.28168 3.97327 3.82336L4.28233 4.07729C4.64376 3.63739 5.04755 3.2336 5.48744 2.87218L5.23351 2.56311C5.69184 2.18655 6.18765 1.85394 6.71451 1.57175L6.90338 1.92435C7.40091 1.65786 7.92733 1.43844 8.47671 1.272L8.36073 0.889182C8.92244 0.719 9.50714 0.601722 10.109 0.543145L10.1478 0.941264C10.4282 0.913976 10.7126 0.9 11.0004 0.9C11.2882 0.9 11.5726 0.913976 11.853 0.941264L11.8917 0.543145C12.4936 0.601722 13.0783 0.719 13.64 0.889182L13.524 1.272C14.0734 1.43844 14.5998 1.65786 15.0974 1.92435L15.2862 1.57175C15.8131 1.85394 16.3089 2.18655 16.7672 2.56312L16.5133 2.87218C16.9532 3.2336 17.357 3.63739 17.7184 4.07729L18.0275 3.82336C18.404 4.28168 18.7367 4.7775 19.0188 5.30436L18.6662 5.49322C18.9327 5.99076 19.1521 6.51718 19.3186 7.06655L19.7014 6.95057Z" stroke="#18283D" stroke-width="0.8" stroke-dasharray="1.6 1.6"/>
</svg>
