<svg width="20" height="21" viewBox="0 0 20 21" fill="none" xmlns="http://www.w3.org/2000/svg">
<path d="M3.7104 17.5033C3.31612 17.5033 2.99612 17.184 2.99612 16.789V4.92188H1.42969V19.0697H15.5775V17.5033H3.7104Z" fill="white"/>
<path d="M4.42188 16.0775H18.5697V1.92969H4.42188V16.0775ZM15.3904 13.6111H7.60188C7.20759 13.6111 6.88759 13.2918 6.88759 12.8968C6.88759 12.5018 7.20759 12.1825 7.60188 12.1825H15.3904C15.7854 12.1825 16.1047 12.5018 16.1047 12.8968C16.1047 13.2918 15.7854 13.6111 15.3904 13.6111ZM15.3904 9.71754H7.60188C7.20759 9.71754 6.88759 9.39754 6.88759 9.00326C6.88759 8.60897 7.20759 8.28897 7.60188 8.28897H15.3904C15.7854 8.28897 16.1047 8.60897 16.1047 9.00326C16.1047 9.39754 15.7854 9.71754 15.3904 9.71754ZM15.3904 5.82397H7.60188C7.20759 5.82397 6.88759 5.50397 6.88759 5.10969C6.88759 4.7154 7.20759 4.3954 7.60188 4.3954H15.3904C15.7854 4.3954 16.1047 4.7154 16.1047 5.10969C16.1047 5.50397 15.7854 5.82397 15.3904 5.82397Z" fill="white"/>
<path d="M19.2857 0.5H3.70929C3.315 0.5 2.995 0.82 2.995 1.21429V3.495H0.714286C0.32 3.495 0 3.815 0 4.20929V19.7857C0 20.1807 0.32 20.5 0.714286 20.5H16.2907C16.6857 20.5 17.005 20.1807 17.005 19.7857V17.505H19.2857C19.6807 17.505 20 17.1857 20 16.7907V1.21429C20 0.82 19.6807 0.5 19.2857 0.5ZM18.5714 16.0764H4.42357V1.92857H18.5714V16.0764ZM1.42857 19.0714V4.92357H2.995V16.79C2.995 17.185 3.315 17.5043 3.70929 17.5043H15.5757V19.0714H1.42857Z" fill="#18283D"/>
<path d="M15.3935 4.39062H7.60491C7.21062 4.39062 6.89062 4.71062 6.89062 5.10491C6.89062 5.4992 7.21062 5.8192 7.60491 5.8192H15.3935C15.7885 5.8192 16.1078 5.4992 16.1078 5.10491C16.1078 4.71062 15.7885 4.39062 15.3935 4.39062Z" fill="#18283D"/>
<path d="M15.3935 8.28906H7.60491C7.21062 8.28906 6.89062 8.60906 6.89062 9.00335C6.89062 9.39763 7.21062 9.71763 7.60491 9.71763H15.3935C15.7885 9.71763 16.1078 9.39763 16.1078 9.00335C16.1078 8.60906 15.7885 8.28906 15.3935 8.28906Z" fill="#18283D"/>
<path d="M15.3935 12.1797H7.60491C7.21062 12.1797 6.89062 12.499 6.89062 12.894C6.89062 13.289 7.21062 13.6083 7.60491 13.6083H15.3935C15.7885 13.6083 16.1078 13.289 16.1078 12.894C16.1078 12.499 15.7885 12.1797 15.3935 12.1797Z" fill="#18283D"/>
</svg>
