<svg width="21" height="21" viewBox="0 0 21 21" fill="none" xmlns="http://www.w3.org/2000/svg">
<path d="M12.8575 9.18182C12.8575 8.84407 12.5836 8.57019 12.2458 8.57019H5.51788C5.18013 8.57019 4.90625 8.84407 4.90625 9.18182C4.90625 9.51958 5.18013 9.79346 5.51788 9.79346H12.2458C12.5836 9.79346 12.8575 9.51958 12.8575 9.18182Z" fill="#18283D"/>
<path d="M5.51788 11.6639C5.18013 11.6639 4.90625 11.9378 4.90625 12.2756C4.90625 12.6133 5.18013 12.8872 5.51788 12.8872H9.08506C9.42282 12.8872 9.69669 12.6133 9.69669 12.2756C9.69669 11.9378 9.42282 11.6639 9.08506 11.6639H5.51788Z" fill="#18283D"/>
<path d="M16.8947 9.21731C16.5569 9.21731 16.283 9.49118 16.283 9.82894V14.7757C16.283 15.7013 15.53 16.4543 14.6044 16.4543H10.5133C10.3808 16.4543 10.2516 16.4971 10.1456 16.5773L6.61311 19.2338C6.5234 19.3011 6.43913 19.2732 6.397 19.2501C6.35418 19.2284 6.28351 19.1747 6.28622 19.0653L6.35418 17.0877C6.35962 16.9218 6.29778 16.7608 6.18293 16.6418C6.06808 16.5222 5.90905 16.455 5.74323 16.455H2.90186C1.97625 16.455 1.22327 15.7027 1.22327 14.7764V6.68922C1.22327 5.76022 1.97625 5.00452 2.90186 5.00452H10.4385C10.7763 5.00452 11.0502 4.73064 11.0502 4.39288C11.0502 4.05513 10.7763 3.78125 10.4385 3.78125H2.90186C1.3021 3.78125 0 5.08607 0 6.6899V14.7764C0 16.3761 1.3021 17.6789 2.90186 17.6789H5.10985L5.06364 19.0259C5.04733 19.579 5.34159 20.0819 5.83294 20.3368C6.04293 20.4462 6.26923 20.4999 6.4935 20.4999C6.79456 20.4999 7.0929 20.4027 7.34707 20.2131L10.7172 17.6789H14.6038C16.2035 17.6789 17.5056 16.3768 17.5056 14.7764V9.82962C17.5063 9.49118 17.2324 9.21731 16.8947 9.21731Z" fill="#18283D"/>
<path d="M20.2004 3.39001C20.0896 3.05022 19.8171 2.79605 19.4712 2.71042L17.9081 2.32101L17.0545 0.955035C16.676 0.34748 15.6879 0.348839 15.31 0.955035L14.4565 2.32101L12.8934 2.71042C12.5475 2.79605 12.2743 3.05022 12.1642 3.39001C12.0541 3.72981 12.1248 4.09611 12.3545 4.36998L13.3902 5.60276L13.2774 7.20932C13.2522 7.56542 13.4099 7.90318 13.6987 8.11318C13.8781 8.24366 14.0888 8.31094 14.3022 8.31094C14.432 8.31094 14.5632 8.28579 14.6889 8.23482L16.1826 7.63135L17.6757 8.23482C18.0067 8.36938 18.3763 8.32317 18.6659 8.11386C18.9547 7.90386 19.1123 7.5661 19.0879 7.20932L18.9751 5.60276L20.0108 4.3693C20.2398 4.09611 20.3111 3.72981 20.2004 3.39001ZM17.8789 5.0054C17.7769 5.12705 17.726 5.28336 17.7375 5.44238L17.8463 6.98505L16.4123 6.40536C16.3389 6.37546 16.2608 6.36051 16.1833 6.36051C16.1058 6.36051 16.0277 6.37546 15.9543 6.40536L14.521 6.98505L14.6291 5.44238C14.64 5.28403 14.589 5.12705 14.4877 5.0054L13.4935 3.82155L14.994 3.4471C15.1476 3.40836 15.2808 3.31254 15.3644 3.17798L16.184 1.86705L17.0036 3.17798C17.0878 3.31254 17.2204 3.40904 17.374 3.4471L18.8745 3.82155L17.8789 5.0054Z" fill="#18283D"/>
</svg>
