<svg width="15" height="21" viewBox="0 0 15 21" fill="none" xmlns="http://www.w3.org/2000/svg">
<path d="M12.4194 12.0331H6.5168C6.35496 12.0331 6.22383 12.1643 6.22383 12.326C6.22383 12.4878 6.35496 12.619 6.5168 12.619H12.4194C12.5812 12.619 12.7123 12.4878 12.7123 12.326C12.7123 12.1643 12.5812 12.0331 12.4194 12.0331ZM12.4194 16.4471H6.5168C6.35496 16.4471 6.22383 16.5783 6.22383 16.7401C6.22383 16.9019 6.35496 17.0331 6.5168 17.0331H12.4194C12.5812 17.0331 12.7123 16.9019 12.7123 16.7401C12.7123 16.5783 12.5812 16.4471 12.4194 16.4471ZM12.4194 15.2753H6.5168C6.35496 15.2753 6.22383 15.4064 6.22383 15.5682C6.22383 15.73 6.35496 15.8612 6.5168 15.8612H12.4194C12.5812 15.8612 12.7123 15.73 12.7123 15.5682C12.7123 15.4064 12.5812 15.2753 12.4194 15.2753ZM12.4194 10.8612H6.5168C6.35496 10.8612 6.22383 10.9924 6.22383 11.1542C6.22383 11.316 6.35496 11.4471 6.5168 11.4471H12.4194C12.5812 11.4471 12.7123 11.316 12.7123 11.1542C12.7123 10.9924 12.5812 10.8612 12.4194 10.8612ZM14.3838 11.9145C14.5457 11.9145 14.6768 11.7834 14.6768 11.6216V5.6066C14.6756 5.54722 14.6561 5.46148 14.591 5.39945L9.77726 0.585698C9.72855 0.541909 9.66691 0.499878 9.57008 0.499878H1.46484C0.657109 0.499878 0 1.15699 0 1.96472V19.035C0 19.8428 0.657109 20.4999 1.46484 20.4999H13.212C14.0197 20.4999 14.6768 19.8428 14.6768 19.035V12.9887C14.6768 12.8269 14.5457 12.6958 14.3839 12.6958C14.222 12.6958 14.0909 12.8269 14.0909 12.9887V19.035C14.0909 19.5197 13.6966 19.9139 13.212 19.9139H1.46484C0.980234 19.9139 0.585937 19.5197 0.585937 19.035V1.96472C0.585937 1.48007 0.980234 1.08582 1.46484 1.08582H9.27711V2.25769H2.49348C2.11656 2.25769 1.80988 2.56437 1.80988 2.94128V4.36707C1.80988 4.74398 2.11656 5.05066 2.49348 5.05066H8.26129C8.42312 5.05066 8.55426 4.91949 8.55426 4.75769C8.55426 4.59589 8.42312 4.46472 8.26129 4.46472H2.49348C2.43961 4.46472 2.39582 4.42089 2.39582 4.36707V2.94128C2.39582 2.88746 2.43961 2.84363 2.49348 2.84363H9.27711V4.43472C9.27711 5.24246 9.93422 5.89957 10.742 5.89957H14.0909V11.6216C14.0909 11.7834 14.222 11.9145 14.3838 11.9145ZM10.742 5.31363C10.2573 5.31363 9.86305 4.91937 9.86305 4.43472V1.50011L13.6766 5.31359L10.742 5.31363ZM4.48555 15.2753H2.37617C2.06387 15.2753 1.80977 15.5294 1.80977 15.8417V17.951C1.80977 18.2634 2.06387 18.5175 2.37617 18.5175H4.48555C4.79785 18.5175 5.05195 18.2634 5.05195 17.951V15.8417C5.05195 15.5294 4.79785 15.2753 4.48555 15.2753ZM4.46601 17.9315H2.3957V15.8612H4.46601V17.9315ZM5.05195 7.01355C5.05195 6.70125 4.79785 6.44714 4.48555 6.44714H2.37617C2.06387 6.44714 1.80977 6.70125 1.80977 7.01355V9.12292C1.80977 9.43523 2.06387 9.68933 2.37617 9.68933H4.48555C4.79785 9.68933 5.05195 9.43523 5.05195 9.12292V7.01355ZM4.46601 9.10339H2.3957V7.03308H4.46601V9.10339ZM12.4194 6.44714H6.5168C6.35496 6.44714 6.22383 6.57832 6.22383 6.74011C6.22383 6.90191 6.35496 7.03308 6.5168 7.03308H12.4194C12.5812 7.03308 12.7123 6.90191 12.7123 6.74011C12.7123 6.57832 12.5812 6.44714 12.4194 6.44714ZM12.4194 7.61902H6.5168C6.35496 7.61902 6.22383 7.75019 6.22383 7.91199C6.22383 8.07378 6.35496 8.20496 6.5168 8.20496H12.4194C12.5812 8.20496 12.7123 8.07378 12.7123 7.91199C12.7123 7.75019 12.5812 7.61902 12.4194 7.61902ZM5.05195 11.4276C5.05195 11.1153 4.79785 10.8612 4.48555 10.8612H2.37617C2.06387 10.8612 1.80977 11.1153 1.80977 11.4276V13.537C1.80977 13.8493 2.06387 14.1034 2.37617 14.1034H4.48555C4.79785 14.1034 5.05195 13.8493 5.05195 13.537V11.4276ZM4.46601 13.5175H2.3957V11.4471H4.46601V13.5175Z" fill="#18283D"/>
</svg>
