<svg width="22" height="23" viewBox="0 0 22 23" fill="none" xmlns="http://www.w3.org/2000/svg">
<path d="M16.1333 10.7667C12.8993 10.7667 10.2667 13.3993 10.2667 16.6333C10.2667 19.8673 12.8993 22.5 16.1333 22.5C19.3673 22.5 22 19.8673 22 16.6333C22 13.3993 19.3673 10.7667 16.1333 10.7667ZM16.1333 21.0333C13.706 21.0333 11.7333 19.0607 11.7333 16.6333C11.7333 14.206 13.706 12.2333 16.1333 12.2333C18.5607 12.2333 20.5333 14.206 20.5333 16.6333C20.5333 19.0607 18.5607 21.0333 16.1333 21.0333ZM19.0667 16.6333C19.0667 17.0367 18.7367 17.3667 18.3333 17.3667H16.1333C15.73 17.3667 15.4 17.0367 15.4 16.6333V13.7C15.4 13.2967 15.73 12.9667 16.1333 12.9667C16.5367 12.9667 16.8667 13.2967 16.8667 13.7V15.9H18.3333C18.7367 15.9 19.0667 16.23 19.0667 16.6333ZM9.90733 21.0333H3.66667C2.45667 21.0333 1.46667 20.0433 1.46667 18.8333V7.83333H19.0667V9.44667C19.0667 9.85 19.3967 10.18 19.8 10.18C20.2033 10.18 20.5333 9.85 20.5333 9.44667V5.63333C20.5333 3.60933 18.8907 1.96667 16.8667 1.96667V1.23333C16.8667 0.83 16.5367 0.5 16.1333 0.5C15.73 0.5 15.4 0.83 15.4 1.23333V1.96667H5.13333V1.23333C5.13333 0.83 4.80333 0.5 4.4 0.5C3.99667 0.5 3.66667 0.83 3.66667 1.23333V1.96667C1.64267 1.96667 0 3.60933 0 5.63333V18.8333C0 20.8573 1.64267 22.5 3.66667 22.5H9.90733C10.3107 22.5 10.6407 22.17 10.6407 21.7667C10.6407 21.3633 10.3107 21.0333 9.90733 21.0333ZM3.66667 3.43333V4.16667C3.66667 4.57 3.99667 4.9 4.4 4.9C4.80333 4.9 5.13333 4.57 5.13333 4.16667V3.43333H15.4V4.16667C15.4 4.57 15.73 4.9 16.1333 4.9C16.5367 4.9 16.8667 4.57 16.8667 4.16667V3.43333C18.0767 3.43333 19.0667 4.42333 19.0667 5.63333V6.36667H1.46667V5.63333C1.46667 4.42333 2.45667 3.43333 3.66667 3.43333ZM6.6 12.2333C6.6 12.6367 6.27 12.9667 5.86667 12.9667C5.46333 12.9667 5.13333 12.6367 5.13333 12.2333C5.13333 11.83 5.46333 11.5 5.86667 11.5C6.27 11.5 6.6 11.83 6.6 12.2333ZM6.6 16.6333C6.6 17.0367 6.27 17.3667 5.86667 17.3667C5.46333 17.3667 5.13333 17.0367 5.13333 16.6333C5.13333 16.23 5.46333 15.9 5.86667 15.9C6.27 15.9 6.6 16.23 6.6 16.6333Z" fill="#18283D"/>
</svg>
